<?xml version="1.0" standalone="no"?>
<!DOCTYPE svg PUBLIC "-//W3C//DTD SVG 20010904//EN"
 "http://www.w3.org/TR/2001/REC-SVG-20010904/DTD/svg10.dtd">
<svg version="1.0" xmlns="http://www.w3.org/2000/svg"
 width="150.000000pt" height="150.000000pt" viewBox="0 0 150.000000 150.000000"
 preserveAspectRatio="xMidYMid meet">

<g transform="translate(0.000000,150.000000) scale(0.100000,-0.100000)"
fill="#BF0A30" stroke="none">
<path d="M0 750 l0 -750 750 0 750 0 0 750 0 750 -750 0 -750 0 0 -750z m582
343 c69 -24 149 -98 179 -165 19 -44 24 -70 24 -148 0 -86 -3 -101 -32 -163
-64 -135 -183 -227 -294 -227 -109 0 -251 96 -310 211 -50 97 -32 268 40 380
75 120 241 167 393 112z m707 -14 c69 -34 108 -82 118 -143 13 -83 -46 -185
-135 -230 l-46 -23 39 -21 c57 -29 82 -60 95 -117 12 -54 28 -84 69 -129 l26
-29 -100 7 c-55 3 -124 6 -153 6 l-53 0 30 37 c35 43 41 100 17 156 -28 64
-32 66 -121 53 l-80 -12 1 -72 c1 -56 8 -85 27 -124 15 -29 25 -54 23 -55 -2
-2 -62 -2 -134 -1 l-132 3 34 43 c33 41 34 45 41 170 4 70 5 190 2 267 -7 135
-8 142 -37 183 -33 47 -35 46 58 33 38 -5 77 -3 135 10 131 28 202 25 276 -12z"/>
<path d="M440 1009 c-62 -25 -111 -105 -135 -220 -39 -183 9 -307 120 -311
126 -5 232 312 155 463 -31 60 -89 89 -140 68z"/>
<path d="M1028 991 l-32 -29 -1 -113 0 -114 44 -3 c25 -2 64 4 88 13 51 20 57
36 58 147 0 67 -3 79 -24 102 -35 37 -90 36 -133 -3z"/>
</g>
</svg>
