<svg width="500" height="500" viewBox="0 0 500 500" fill="none" xmlns="http://www.w3.org/2000/svg">
  <rect width="500" height="500" rx="60" fill="#10B981"/>
  <path d="M170 120H330C341.046 120 350 128.954 350 140V180C350 191.046 341.046 200 330 200H170C158.954 200 150 191.046 150 180V140C150 128.954 158.954 120 170 120Z" stroke="white" stroke-width="8"/>
  <path d="M150 180H350" stroke="white" stroke-width="8"/>
  <path d="M180 220H320" stroke="white" stroke-width="8" stroke-linecap="round"/>
  <path d="M180 250H290" stroke="white" stroke-width="8" stroke-linecap="round"/>
  <path d="M180 280H260" stroke="white" stroke-width="8" stroke-linecap="round"/>
  <path d="M180 310H310" stroke="white" stroke-width="8" stroke-linecap="round"/>
  <path d="M240 360H330C340.493 360 348 367.507 348 378C348 388.493 340.493 396 330 396H240C229.507 396 222 388.493 222 378C222 367.507 229.507 360 240 360Z" stroke="white" stroke-width="6" stroke-linecap="round"/>
  <path d="M250 410H280" stroke="white" stroke-width="6" stroke-linecap="round"/>
</svg>