<?xml version="1.0"?><svg version="1.2" baseProfile="tiny-ps" viewBox="0 0 300 300" xmlns="http://www.w3.org/2000/svg" xmlns:xlink="http://www.w3.org/1999/xlink"><title>NaijaReceipt</title><g><g fill="#fff" transform="matrix(.1 0 0 -.1 0 300)"><path d="M0 1500V0h3000v3000H0V1500z"/></g><g fill="#e4f0e9" transform="matrix(.1 0 0 -.1 0 300)"><path d="M0 1500V0h3000v3000H0V1500zm642 598 27-10 78-106c43-59 152-206 243-327l165-220 5 312 5 312 21 22 22 21 43 8 44 8 44-8 43-8 22-21 21-22 3-509 3-510-16-30-16-31-25-9-25-10h-137l-29 29c-15 16-129 164-253 329-124 166-228 301-232 301l-8 1-1-282v-283l-12-35-12-34-25-13-25-13H491l-25 11-25 12-11 30-10 30v988l14 34 15 34 23 5c69 15 119 14 170-6zm1479 12 54-10 64-32 64-32 45-46 45-45 29-62 29-62 9-63 9-63-8-60c-11-75-31-123-77-188l-36-50 32-76c18-42 48-114 67-159l35-84-6-24c-12-47-104-102-171-103l-31-1-20 14-20 14-64 151-65 151h-265v-259l-24-27-23-28-65-4-64-4-37 15-37 16-10 26-10 26v1000l15 29 15 30 28 6c15 3 32 7 37 9 6 2 98 4 206 4l196 1 54-10zm-273-266-8-7v-287h241l32 16c39 21 50 32 72 74l17 33-5 40-6 40-18 26c-11 13-32 34-47 45l-27 21-122 3-122 4-7-8z"/></g><g fill="#bbd9c7" transform="matrix(.1 0 0 -.1 0 300)"><path d="M0 1500V0h3000v3000H0V1500zm649 600 22-11 116-157c269-363 358-482 365-482h7l3 311 3 311 23 18 22 18 41 7 41 7 43-7 44-6 23-19 23-18 3-518 3-519-12-28c-7-15-20-32-30-38l-19-10-73-1h-74l-21 11-22 11-242 322-243 322-5-308-5-308-28-24-28-24H472l-23 19-24 19-3 527-3 528 16 23 15 23 33 10 32 10 56-3c31-2 66-9 78-16zm1490 9c24-5 69-22 99-37l55-27 48-43 48-43 31-62 30-62 11-60 11-60-6-63-7-63-20-52-21-52-34-42-35-43 61-142c34-78 64-156 67-175l6-33-17-26-18-26-51-24-52-24h-82l-19 21c-10 11-46 84-80 162l-61 142h-258l-5-130c-3-71-9-137-13-146-5-9-19-21-33-28l-25-11h-141l-29 29-29 29v1039l20 26 20 26 23 4c12 2 121 5 242 5l220 2 44-11zm-297-411 3-143 98-3 97-3 42 12 42 11 33 33 33 33v119l-21 27c-11 14-34 33-49 41l-29 15h-252l3-142z"/></g><g fill="#93c3a7" transform="matrix(.1 0 0 -.1 0 300)"><path d="M0 1500V0h3000v3000H0V1500zm665 590c15-14 118-149 230-300s217-291 234-310l30-35 1 307v307l23 26 22 26 61 6 61 6 37-13 36-12 15-21 15-21V1009l-23-23-24-24-51-7-52-7-39 7-40 7-33 37c-18 20-130 166-248 324-118 157-218 286-222 287h-8v-581l-15-29-15-30-28-7c-15-4-55-7-89-7h-61l-26 17-25 17-11 40-11 40 3 487 3 488 14 27 14 27 26 10 26 10 72-2 72-2 26-25zm1510 10c74-25 144-70 191-122l36-41 30-63 30-64 5-79 6-78-13-54c-16-67-41-118-80-163l-31-35 62-138 62-138 4-46 5-46-37-30-37-31-53-17-54-16-35 16-35 17-39 91c-22 51-52 119-65 152l-25 60-26-1c-14 0-70-1-125-2l-99-2-4-122-4-123-12-22c-7-13-22-27-33-33l-20-11-68-1h-67l-31 15c-17 9-33 24-37 32-3 9-6 249-6 534v517l16 22c9 13 26 27 38 32l21 9h236l236 1 58-20zm-325-400v-140h245l32 20 32 19 16 30 15 30v86l-19 31-19 31-35 16-35 17h-232v-140z"/></g><g fill="#5da47a" transform="matrix(.1 0 0 -.1 0 300)"><path d="M0 1500V0h3000v3000H0V1500zm641 607c34-15 33-14 290-362l214-289 5 299 5 300 15 23 15 22 33 11 34 11 64-4 65-4 27-27 27-27 3-483c2-265 0-501-3-525l-6-42-23-26-22-26-72-6-71-5-30 12-29 13-237 314c-130 173-241 317-246 320l-9 5v-580l-10-26-10-26-37-16-38-15-64 5-63 5-27 26-26 26-3 503-3 502 11 37 11 38 27 14 27 15h130l26-12zm1543-8c31-11 83-38 115-60l60-40 39-59 39-58 18-65 18-66-5-83-4-83-26-57c-15-32-38-73-52-91-14-19-26-38-26-44s26-70 58-144c33-74 62-145 65-158l6-25-15-32-15-31-48-26c-26-15-65-29-87-32l-39-6-30 19-30 19-64 152-65 152-20-5c-12-3-67-6-123-6h-103v-225l-18-35-17-35-43-14-43-13-56 7-56 7-22 23-23 22-7 54c-3 30-5 265-3 524l3 470 13 23c7 13 23 27 35 32l22 9h247l247 1 55-21zm-334-399v-140h235l35 18 35 19 18 34 18 34-4 48-4 48-24 25c-13 14-36 32-51 40l-27 14h-231v-140z"/></g><g fill="#0b7637" transform="matrix(.1 0 0 -.1 0 300)"><path d="M0 1500V0h3000v3000H0V1500zm616 619 45-12 30-36c16-20 126-166 244-326l215-289v575l14 34 14 33 19 10c10 5 41 13 68 16l50 7 45-13 45-14 17-34 18-35v-992l-11-33-12-32-33-14-33-14h-138l-24 19c-13 10-127 156-254 325l-230 306-5-288-5-288-18-27-18-28-25-9c-33-13-135-13-168 0l-25 9-16 31-16 30 3 520 3 519 22 22 21 22 39 7c56 11 70 11 119-1zm1529-4c32-9 81-28 109-43l51-27 51-50 50-50 27-57 27-57 10-74 11-75-15-70c-16-77-41-133-82-181l-27-32 62-142c34-78 64-159 68-180l6-37-36-34-36-34-47-16c-26-9-61-16-77-16h-29l-27 28-27 27-59 138-58 137h-247v-231l-14-33-14-34-37-12-38-13-65 6-64 5-27 26-26 26v1058l19 21c11 12 33 25 50 30l31 9 210 1 211 1 59-15zm-295-415v-140h225l34 18c19 9 44 30 55 45l21 29-1 48v48l-18 27-18 27-41 19-42 19h-215v-140z"/></g></g></svg>